# xmcd
#
# Track frame offsets:
#	150
#	12226
#	23042
#	38048
#	47947
#	59551
#	73362
#	86904
#	98457
#	110720
#	121321
#
# Disc length: 1804 seconds
#
# Revision: 1
# Processed by: cddbd v1.5.2PL0 Copyright (c) Steve Scherf et al.
# Submitted via: audiograbber 1.83.01
#
DISCID=97070a0b
DTITLE=Eddy Raven - Forever Gold
DYEAR=2007
DGENRE=Cajun Country
TTITLE0=Fais Do Do - With Joe El Sonnier
TTITLE1=I Got Mexico
TTITLE2=Zydeco Lady
TTITLE3=Cher Big Mamou
TTITLE4=I'm Gonna Get You
TTITLE5=Jambalaya (On The Bayou)
TTITLE6=Colinda
TTITLE7=Diggy Liggy Lo - With Joe El Sonnier
TTITLE8=Papa Thibodeaux
TTITLE9=Love Lifted Me
TTITLE10=Leaning On The Everlasting Arms
EXTD=
EXTT0=
EXTT1=
EXTT2=
EXTT3=
EXTT4=
EXTT5=
EXTT6=
EXTT7=
EXTT8=
EXTT9=
EXTT10=
PLAYORDER=
